<svg width="79" height="64" viewBox="0 0 79 64" fill="none" xmlns="http://www.w3.org/2000/svg">
<ellipse cx="60.4444" cy="32.0462" rx="10.9402" ry="10.7127" fill="white"/>
<path d="M42.6667 63.7376V57.0422C42.6667 57.0422 45.4017 46.7759 60.4445 46.7759C75.4872 46.7759 78.2222 57.4885 78.2222 57.4885V63.7376H42.6667Z" fill="white"/>
<path d="M41.7773 0C46.1956 0 49.7773 3.58172 49.7773 8V17.5771C41.07 26.8477 40.5733 32.4096 46.2227 42.8174C37.25 47.6335 35.0179 52.364 35.5557 64H0V8C0 3.58172 3.58172 5.15422e-07 8 0H41.7773ZM14.2227 49.7773H21.333V42.667H14.2227V49.7773ZM28.4443 49.7773H35.5557V42.667H28.4443V49.7773ZM14.2227 35.5557H21.333V28.4443H14.2227V35.5557ZM28.4443 35.5557H35.5557V28.4443H28.4443V35.5557ZM14.2227 21.333H21.333V14.2227H14.2227V21.333ZM28.4443 21.333H35.5557V14.2227H28.4443V21.333Z" fill="white"/>
</svg>
