<svg width="40" height="40" viewBox="0 0 40 40" fill="none" xmlns="http://www.w3.org/2000/svg">
<rect width="40" height="40" fill="#D9D9D9"/>
<path d="M19.375 25.75H6.46875V24.3125H12.0312V22.0156H8V17.3906H16.125V15.6406H7.96875V14.2344H17.8438V18.7656H9.73438V20.5938H18.1719V22.0156H13.75V24.3125H19.375V25.75ZM31.4281 15.9219V16.0938C31.4229 16.875 31.4073 17.5547 31.3813 18.1328C31.3604 18.7057 31.3109 19.3724 31.2328 20.1328C31.1547 20.888 31.0323 21.7083 30.8656 22.5938L29.1156 22.4062C29.2823 21.5833 29.4047 20.8073 29.4828 20.0781C29.5609 19.3438 29.6104 18.6927 29.6313 18.125C29.6573 17.5573 29.6729 16.8906 29.6781 16.125V15.9531H21.2406V14.5625H31.4281V15.9219ZM32.7719 25.5625H19.8969V24.1406H24.6469V19.2344H26.3656V24.1406H32.7719V25.5625Z" fill="white"/>
</svg>
