<svg width="43" height="17" viewBox="0 0 43 17" fill="none" xmlns="http://www.w3.org/2000/svg">
<path d="M3.87 14.702C3.25667 14.702 2.68667 14.5953 2.16 14.382C1.64 14.1753 1.21667 13.8453 0.89 13.392C0.563333 12.932 0.4 12.3553 0.4 11.662V8.65195C0.4 7.95195 0.56 7.37529 0.88 6.92195C1.20667 6.46862 1.62667 6.13862 2.14 5.93195C2.65333 5.71862 3.20667 5.61195 3.8 5.61195C4.34 5.61195 4.83 5.66862 5.27 5.78195C5.71 5.88862 6.07667 6.04529 6.37 6.25195L6.17 7.82195C5.61 7.50195 4.90333 7.34195 4.05 7.34195C3.54333 7.34195 3.13 7.46195 2.81 7.70195C2.49667 7.94195 2.34 8.30529 2.34 8.79195V11.522C2.34 12.002 2.48333 12.3653 2.77 12.612C3.06333 12.852 3.43 12.972 3.87 12.972C4.27 12.972 4.60333 12.872 4.87 12.672C5.14333 12.4653 5.28 12.1886 5.28 11.842V11.092H3.84V9.44195H7.01V11.862C7.01 12.822 6.71667 13.5353 6.13 14.002C5.55 14.4686 4.79667 14.702 3.87 14.702ZM10.9121 14.702C10.4188 14.702 9.95211 14.6153 9.51211 14.442C9.07878 14.2686 8.71878 13.9753 8.43211 13.562C8.15211 13.1486 8.01211 12.6053 8.01211 11.932V10.582C8.01211 9.90862 8.15211 9.36529 8.43211 8.95195C8.71211 8.53862 9.06878 8.24529 9.50211 8.07195C9.94211 7.89862 10.4121 7.81195 10.9121 7.81195C11.4054 7.81195 11.8688 7.89862 12.3021 8.07195C12.7421 8.24529 13.1021 8.53862 13.3821 8.95195C13.6688 9.36529 13.8121 9.90862 13.8121 10.582V11.932C13.8121 12.6053 13.6688 13.1486 13.3821 13.562C13.1021 13.9753 12.7421 14.2686 12.3021 14.442C11.8688 14.6153 11.4054 14.702 10.9121 14.702ZM10.9121 13.062C11.1721 13.062 11.4021 12.9853 11.6021 12.832C11.8021 12.6786 11.9021 12.442 11.9021 12.122V10.392C11.9021 10.072 11.8021 9.83529 11.6021 9.68195C11.4021 9.52862 11.1721 9.45195 10.9121 9.45195C10.6521 9.45195 10.4221 9.52862 10.2221 9.68195C10.0221 9.83529 9.92211 10.072 9.92211 10.392V12.122C9.92211 12.442 10.0221 12.6786 10.2221 12.832C10.4221 12.9853 10.6521 13.062 10.9121 13.062ZM17.5184 14.712C16.8717 14.712 16.375 14.5486 16.0284 14.222C15.6817 13.902 15.5084 13.382 15.5084 12.662V9.76195H14.4184V8.17195H15.5084V6.07195H17.4084V8.17195H18.9284V9.76195H17.4084V12.572C17.4084 12.7386 17.455 12.8686 17.5484 12.962C17.6417 13.0486 17.7684 13.0953 17.9284 13.102C18.0817 13.1086 18.245 13.102 18.4184 13.082C18.5917 13.062 18.7284 13.032 18.8284 12.992L18.9284 14.442C18.535 14.622 18.065 14.712 17.5184 14.712ZM25.2732 14.702C24.5199 14.702 23.8765 14.492 23.3432 14.072C22.8099 13.6586 22.4899 13.042 22.3832 12.222L24.2632 11.972C24.3099 12.3053 24.4232 12.552 24.6032 12.712C24.7832 12.8653 25.0065 12.942 25.2732 12.942C25.5465 12.942 25.7699 12.8553 25.9432 12.682C26.1165 12.502 26.2032 12.2386 26.2032 11.892V5.77195H28.1632V11.692C28.1632 12.372 28.0365 12.9386 27.7832 13.392C27.5299 13.8386 27.1832 14.1686 26.7432 14.382C26.3099 14.5953 25.8199 14.702 25.2732 14.702ZM32.1613 14.702C31.668 14.702 31.2013 14.6153 30.7613 14.442C30.328 14.2686 29.968 13.9753 29.6813 13.562C29.4013 13.1486 29.2613 12.6053 29.2613 11.932V10.582C29.2613 9.90862 29.4013 9.36529 29.6813 8.95195C29.9613 8.53862 30.318 8.24529 30.7513 8.07195C31.1913 7.89862 31.6613 7.81195 32.1613 7.81195C32.6547 7.81195 33.118 7.89862 33.5513 8.07195C33.9913 8.24529 34.3513 8.53862 34.6313 8.95195C34.918 9.36529 35.0613 9.90862 35.0613 10.582V11.932C35.0613 12.6053 34.918 13.1486 34.6313 13.562C34.3513 13.9753 33.9913 14.2686 33.5513 14.442C33.118 14.6153 32.6547 14.702 32.1613 14.702ZM32.1613 13.062C32.4213 13.062 32.6513 12.9853 32.8513 12.832C33.0513 12.6786 33.1513 12.442 33.1513 12.122V10.392C33.1513 10.072 33.0513 9.83529 32.8513 9.68195C32.6513 9.52862 32.4213 9.45195 32.1613 9.45195C31.9013 9.45195 31.6713 9.52862 31.4713 9.68195C31.2713 9.83529 31.1713 10.072 31.1713 10.392V12.122C31.1713 12.442 31.2713 12.6786 31.4713 12.832C31.6713 12.9853 31.9013 13.062 32.1613 13.062ZM39.5929 14.702C39.3262 14.702 39.0496 14.6453 38.7629 14.532C38.4762 14.4186 38.2396 14.2586 38.0529 14.052V14.542H36.2629V5.97195H38.1929V8.26195C38.3796 8.11529 38.5962 8.00529 38.8429 7.93195C39.0962 7.85195 39.3462 7.81195 39.5929 7.81195C40.3262 7.81195 40.9162 8.02529 41.3629 8.45195C41.8096 8.87862 42.0329 9.58529 42.0329 10.572V11.942C42.0329 12.9286 41.8096 13.6353 41.3629 14.062C40.9162 14.4886 40.3262 14.702 39.5929 14.702ZM39.1129 13.092C39.3596 13.092 39.5796 13.012 39.7729 12.852C39.9729 12.692 40.0729 12.4553 40.0729 12.142V10.382C40.0729 10.0686 39.9729 9.83195 39.7729 9.67195C39.5796 9.50529 39.3596 9.42195 39.1129 9.42195C38.8662 9.42195 38.6429 9.50195 38.4429 9.66195C38.2429 9.81529 38.1429 10.0386 38.1429 10.332V12.142C38.1429 12.4553 38.2429 12.692 38.4429 12.852C38.6429 13.012 38.8662 13.092 39.1129 13.092Z" fill="#142CA6"/>
<path d="M9 3.53809L11.1213 5.65941" stroke="#5697E1" stroke-width="2" stroke-linecap="round"/>
<path d="M14.6569 2.12402L11.1213 5.65956" stroke="#5697E1" stroke-width="2" stroke-linecap="round"/>
<path d="M30 3.53809L32.1213 5.65941" stroke="#5697E1" stroke-width="2" stroke-linecap="round"/>
<path d="M35.6569 2.12402L32.1213 5.65956" stroke="#5697E1" stroke-width="2" stroke-linecap="round"/>
</svg>
